<?xml version="1.0" standalone="no"?>
<!DOCTYPE svg PUBLIC "-//W3C//DTD SVG 20010904//EN"
 "http://www.w3.org/TR/2001/REC-SVG-20010904/DTD/svg10.dtd">
<svg version="1.0" xmlns="http://www.w3.org/2000/svg"
 width="600.000000pt" height="400.000000pt" viewBox="0 0 600.000000 400.000000"
 preserveAspectRatio="xMidYMid meet">
<g transform="translate(0.000000,400.000000) scale(0.100000,-0.100000)"
fill="#000000" stroke="none">
<path d="M3230 2469 c-104 -9 -135 -14 -280 -44 -126 -27 -323 -98 -580 -208
-331 -141 -406 -166 -522 -172 -312 -17 -503 -62 -744 -175 -158 -74 -124 -77
43 -3 224 99 389 135 724 158 101 7 205 41 429 140 247 110 454 188 585 221
225 57 232 58 570 58 306 1 429 -8 580 -40 11 -3 55 -11 97 -19 79 -14 273
-62 388 -95 167 -48 315 -92 430 -126 69 -20 160 -44 203 -52 102 -21 100 -36
-5 -29 -87 6 -162 24 -423 102 -358 106 -368 109 -595 160 -323 71 -767 90
-1050 45 -200 -33 -409 -108 -787 -285 -90 -42 -145 -61 -205 -70 l-83 -14
100 5 c99 6 102 7 240 74 276 135 498 218 688 260 275 61 693 46 1102 -40 175
-36 482 -124 501 -143 8 -8 -65 -40 -126 -55 -162 -40 -557 -69 -1320 -97 -85
-3 -189 -8 -230 -10 -92 -6 -333 -12 -720 -20 -289 -6 -606 -26 -705 -45 -130
-24 -187 -38 -198 -49 -9 -10 -5 -10 18 -1 16 6 93 13 170 15 115 3 130 2 85
-6 -102 -19 -175 -40 -255 -76 -77 -35 -85 -37 -217 -41 -76 -2 -136 -8 -133
-12 9 -15 152 -23 218 -11 35 6 106 29 158 51 52 23 131 47 178 55 97 17 119
29 97 54 -13 14 -12 16 7 17 12 0 112 6 222 12 110 6 322 14 470 17 302 7 835
23 965 30 47 3 191 9 320 15 129 5 255 12 280 15 25 2 95 7 155 10 61 3 155
10 210 16 89 9 124 15 215 33 54 12 141 50 150 66 8 16 25 13 197 -38 151 -43
207 -55 284 -59 90 -5 98 -4 108 15 15 27 2 35 -89 57 -41 9 -124 32 -185 50
-60 18 -191 56 -290 84 -99 29 -201 58 -228 66 -165 50 -528 116 -712 129
-155 12 -401 14 -505 5z"/>
<path d="M3329 2366 c-2 -2 -35 -6 -74 -9 -73 -7 -82 -8 -208 -32 -135 -27
-354 -109 -601 -224 -60 -28 -127 -56 -148 -62 -68 -18 -128 -19 642 12 168 6
323 13 345 14 22 1 119 5 215 9 159 6 338 15 632 32 l106 6 12 64 c15 76 11
90 -27 97 -15 3 -60 12 -98 21 -92 20 -278 48 -450 66 -87 9 -337 14 -346 6z
m399 -36 c103 -11 361 -53 452 -74 l55 -12 -3 -44 c-2 -25 -8 -50 -15 -57 -13
-12 -200 -25 -737 -48 -419 -19 -493 -22 -730 -30 -102 -3 -218 -8 -257 -11
-40 -3 -73 -2 -73 3 0 10 227 112 365 164 124 47 280 87 405 104 117 16 407
19 538 5z"/>
<path d="M4273 2203 c-5 -32 -14 -66 -18 -77 -7 -15 -5 -17 11 -13 10 4 39 8
64 11 133 16 211 34 217 52 2 6 -16 15 -39 21 -58 15 -178 48 -204 57 -18 5
-21 0 -31 -51z m152 -8 c71 -21 61 -28 -59 -42 -75 -9 -76 -9 -76 13 0 61 14
64 135 29z"/>
<path d="M1235 1852 c-104 -16 -134 -32 -59 -32 52 0 163 25 178 40 11 11 -2
10 -119 -8z"/>
</g>
</svg>
